<svg width="180" height="76" viewBox="0 0 180 76" fill="none" xmlns="http://www.w3.org/2000/svg">
<g clip-path="url(#clip0_4179_2789)">
<path d="M112.26 0.40294L112.35 0.313721H112.692L113.212 0.40294L113.807 0.49216L114.327 0.581382L114.847 0.655732L115.457 0.744951L115.963 0.834174L116.572 0.923393L117.093 1.01261L117.688 1.10183L118.208 1.17618L118.728 1.2654L118.817 1.35462V1.44385L118.728 1.60742V1.69663L118.817 1.9643L118.892 2.12787L118.981 2.39553L119.07 2.5591L119.159 2.81189L119.249 2.99032L119.338 3.25799L119.412 3.42155L119.502 3.68922L119.591 3.85278L119.665 4.12045L119.769 4.28404L119.844 4.55168L119.933 4.80447L120.022 4.98291L120.111 5.23571L120.186 5.41414L120.275 5.66694L120.364 5.8454L120.453 6.09817L120.542 6.27663L120.617 6.5294L120.706 6.70786L120.795 6.96063L120.884 7.13909L120.974 7.40675L121.048 7.57032L121.137 7.83798L121.226 8.00155L121.316 8.25435L121.405 8.43278L121.494 8.68558L121.568 8.86401L121.658 9.11681L121.747 9.29524L121.821 9.56291L121.91 9.72647L121.999 9.99414L122.089 10.1577L122.178 10.4254L122.267 10.5889L122.341 10.8566L122.431 11.0202L122.52 11.2878L122.609 11.4514L122.698 11.7191L122.773 11.8826L122.862 12.1503L122.951 12.3139L123.04 12.5815L123.129 12.7451L123.204 13.0128L123.293 13.2655L123.382 13.444L123.472 13.6968L123.561 13.8752L123.65 14.128L123.724 14.3064V14.8269L123.65 14.9905L123.561 15.1689L123.472 15.3474L123.382 15.5109L123.293 15.6894L123.204 15.8529L123.129 16.0314L123.04 16.1206L122.951 16.299L122.862 16.4626L122.773 16.6262L122.698 16.8046L122.609 16.9831L122.52 17.1466L122.431 17.2359L122.341 17.4143L122.267 17.5779L122.178 17.7563L122.089 17.9347L121.999 18.0983L121.91 18.2767L121.821 18.4552L121.747 18.5295L121.658 18.708L121.568 18.8864L121.494 19.05L121.405 19.2284L121.316 19.392L121.226 19.5704L121.137 19.7489L121.048 19.8381L120.974 20.0017L120.884 20.1801L120.795 20.3437L120.706 20.5221L120.617 20.7006L120.542 20.8642L120.453 20.9385L120.364 21.1169L120.275 21.2954L120.186 21.459L120.111 21.6374L120.022 21.8158L119.933 21.9794L119.844 22.1579L119.769 22.2471L119.665 22.4106L119.591 22.5891L119.502 22.7675L119.412 22.9311L119.338 23.0947L119.249 23.2731L119.159 23.4515L119.07 23.5407L118.981 23.7043L118.892 23.8828L118.817 24.0463L118.728 24.2248L118.639 24.4032L118.55 24.5668L118.461 24.656L118.386 24.8344L118.297 24.998L118.208 25.1765L118.119 25.3549L118.03 25.5185L117.955 25.6969L117.866 25.8605L117.777 25.9497V26.2174L117.866 26.3066L117.955 26.4702L118.03 26.5594L118.119 26.7378L118.208 26.8122L118.297 26.9906L118.386 27.0798L118.461 27.2434L118.55 27.3326L118.639 27.5111L118.728 27.6003L118.817 27.7638L118.892 27.8531L118.981 28.0167L119.07 28.1951L119.159 28.2844L119.249 28.4627L119.338 28.6264L119.412 28.8047L119.502 28.8941L119.591 29.0574L119.665 29.2361L119.769 29.3251L119.844 29.4887L119.933 29.6671L120.022 29.7564L120.111 29.9201L120.186 30.0984L120.275 30.1877L120.364 30.3514L120.453 30.5297L120.542 30.619L120.617 30.7824L120.706 30.961L120.795 31.0501L120.884 31.2137L120.974 31.3921L121.048 31.4814L121.137 31.6597L121.226 31.8234L121.316 31.9127L121.405 32.0911L121.494 32.2547L121.568 32.3437L121.658 32.5224L121.747 32.6857L121.821 32.7751L121.91 32.9387L121.999 33.1171L122.089 33.2064L122.178 33.3697L122.267 33.5484L122.341 33.6374L122.431 33.816L122.52 33.9797L122.609 34.158L122.698 34.2471L122.773 34.4107L122.862 34.5893L122.951 34.6784L123.04 34.842L123.129 35.0204L123.204 35.1097L123.293 35.2733L123.382 35.4517L123.472 35.541L123.561 35.7044L123.65 35.883L123.724 35.972L123.814 36.1357L123.903 36.314L123.977 36.4034L124.066 36.567L124.156 36.7454L124.245 36.8347L124.334 37.013L124.423 37.1767L124.498 37.2657L124.587 37.4443L124.676 37.6077L124.765 37.697L124.854 37.8607L124.929 38.039L125.018 38.1283L125.107 38.292L125.196 38.4703L125.271 38.5597L125.36 38.723L125.449 38.9017L125.538 38.9907L125.613 39.1693L125.702 39.3327L125.791 39.5113L125.88 39.6004L125.969 39.764L126.044 39.9424L126.133 40.0317L126.222 40.1953L126.311 40.3737L126.401 40.463L126.475 40.6263L126.564 40.805L126.653 40.8793L126.743 41.0577L126.832 41.236L126.921 41.3253L126.995 41.489L127.085 41.6673L127.174 41.7566L127.248 41.935L127.352 42.0986L127.427 42.1877L127.516 42.3513L127.605 42.53L127.694 42.619L127.769 42.7826L127.858 42.961L127.947 43.0503L128.036 43.214L128.126 43.3923L128.2 43.4816L128.289 43.645L128.378 43.8236L128.468 43.9127L128.557 44.0913L128.631 44.2547L128.72 44.344L128.81 44.5223L128.899 44.686L128.988 44.8643L129.077 44.9536L129.152 45.1173L129.241 45.2956V45.8013L129.152 45.9796L129.077 46.1583L128.988 46.3366L128.899 46.5003L128.81 46.6786L128.72 46.8423L128.631 47.0206L128.557 47.2733L128.468 47.4519L128.378 47.6303L128.289 47.7939L128.2 47.9723L128.126 48.1359L128.036 48.225L127.947 48.3143L127.769 48.4036L127.694 48.4926H127.427L126.564 48.4036L125.702 48.3143L124.854 48.225L123.977 48.1359L123.04 48.0616L122.178 47.9723L121.316 47.883L120.453 47.7939L119.591 47.7046L118.639 47.6303L118.208 47.541L118.119 47.4519L117.955 47.3626L117.866 47.2733L117.777 47.1843L117.613 47.1099L117.509 47.0206L117.435 46.9313L117.256 46.8423L117.182 46.753L117.093 46.6786L116.914 46.5893L116.825 46.5003L116.736 46.411L116.572 46.3366L116.483 46.2473L116.394 46.1583L116.23 46.069L116.141 45.9796L116.052 45.9053L115.874 45.8013L115.799 45.7269L115.71 45.6376L115.532 45.5483L115.457 45.474L115.353 45.3849L115.189 45.2956L115.1 45.2063L115.026 45.1173L114.937 45.028L114.758 44.9536L114.669 44.8643L114.58 44.7753L114.416 44.686L114.327 44.5967L114.238 44.5223L114.075 44.4333L113.985 44.344L113.896 44.2547L113.718 44.1656L113.643 44.0913L113.554 44.002L113.376 43.9127L113.301 43.8236L113.212 43.7343L113.034 43.645L112.944 43.5707L112.87 43.4816L112.692 43.3923L112.602 43.303L112.513 43.214L112.35 43.1396L112.26 43.0503L112.171 42.961L111.993 42.872L111.918 42.7826L111.74 42.7083L111.651 42.53L111.561 42.3513L111.487 42.0986L111.398 41.831L111.309 41.578L111.219 41.4146L111.145 41.147L111.056 40.8793L110.967 40.7157L110.877 40.463L110.788 40.1953L110.714 39.9424L110.625 39.764L110.536 39.5113L110.446 39.2436L110.402 38.976L110.357 39.422L110.268 39.9424L110.194 40.463L110.105 40.8793L110.015 41.4146L109.926 41.935L109.837 42.4406L109.763 42.872L109.673 43.3923L109.584 43.9127L109.495 44.4333L109.406 44.8643L109.331 45.3849L109.242 45.9053L109.153 46.1583H108.989V46.3366L108.9 46.411L108.722 46.5003L108.469 46.5893L108.29 46.6786L108.038 46.753L107.77 46.8423L107.517 46.9313L107.249 47.0206L106.997 47.1099L106.744 47.1843L106.566 47.2733L106.313 47.3626L106.045 47.4519L105.793 47.541L105.525 47.6303L105.272 47.7046L105.094 47.7939L104.841 47.883L104.588 47.9723L104.32 48.0616L104.068 48.1359L103.8 48.225L103.636 48.3143L103.369 48.4036L103.116 48.4926L102.863 48.567L102.596 48.6563L102.343 48.7456L102.09 48.8346L101.912 48.9239L101.644 48.9983L101.391 49.0876L101.139 49.1766L100.871 49.2659L100.618 49.3553L100.44 49.4443L100.187 49.5186L99.9341 49.6079H99.4138L99.1461 49.5186L98.9825 49.4443L98.7149 49.3553L98.5512 49.2659L98.2836 49.1766L98.0309 49.0876L97.8526 48.9983L97.5996 48.9239L97.4213 48.8346L97.1686 48.7456L96.99 48.6563L96.7374 48.567L96.4844 48.4926L96.3061 48.4036L96.0534 48.3143L95.8748 48.225L95.6221 48.1359L95.4438 48.0616L95.1909 47.9723L94.9382 47.883L94.7599 47.7939L94.5069 47.7046L94.3436 47.6303L94.0759 47.541L93.9123 47.4519L93.6446 47.3626L93.3917 47.2733L93.2134 47.1843L92.9607 47.1099L92.7821 47.0206L92.5294 46.9313L92.3511 46.8423L92.0981 46.753L91.8305 46.6786L91.6671 46.5893L91.3995 46.5003L91.2359 46.411L90.9682 46.3366L90.8046 46.2473L90.5519 46.1583L90.2843 46.069L90.1059 45.9796L89.853 45.9053L89.6747 45.8013L89.4217 45.7269L89.2434 45.6376L88.9907 45.5483L88.7231 45.474H88.3958H88.0391V45.2956L88.1282 44.9536L88.2175 44.5967L88.2918 44.2547L88.3958 43.9127L88.4701 43.645L88.5594 43.303L88.6487 42.961L88.7231 42.619L88.8121 42.2623L88.9014 41.935L88.9907 41.578L89.0797 41.3253L89.169 40.9833L89.2434 40.6263L89.3327 40.2843L89.4217 39.9424L89.511 39.6004L89.6003 39.3327L89.6747 38.9907L89.7637 38.6487L89.853 38.292L89.9423 37.95L90.0313 37.6077L90.1059 37.2657L90.195 37.013L90.2843 36.656L90.3736 36.314L90.4479 35.972L90.5519 35.63L90.6262 35.2733L90.7155 34.9313L90.8046 34.6784L90.8789 34.3217L90.9682 33.9797L91.0575 33.6374L91.1466 33.2954L91.2359 32.9387L91.3252 32.6857L91.3995 32.3437L91.4885 31.987L91.5778 31.6597L91.6671 31.303L91.7562 30.961L91.8305 30.619L91.9198 30.3514L92.0091 30.0091L92.0981 29.6671L92.1874 29.3251L92.2618 28.9684L92.3511 28.6264L92.4401 28.2844L92.5294 28.0167L92.6037 27.6746L92.7078 27.3326L92.7821 26.9906L92.8714 26.6486L92.9607 26.3066L93.035 26.0389L93.1241 25.6969L93.2134 25.3549L93.3027 24.998L93.3917 24.656L93.481 24.314L93.5553 23.972L93.6446 23.7043L93.734 23.3623L93.823 23.0203L93.9123 22.6783L93.9866 22.3214L94.0759 21.9794L94.1649 21.6374L94.2543 21.3846L94.3436 21.0277L94.4179 20.7006L94.5069 20.3437L94.5962 20.0017L94.6855 19.6597L94.7599 19.392L94.8639 19.05L94.9382 18.708L95.0275 18.366L95.1165 18.0091L95.1909 17.6671L95.2652 17.3251L95.3545 17.0723L95.4438 16.7303L95.5328 16.3734L95.6221 16.0314L95.6965 15.6894L95.7858 15.3474L95.8748 14.9905L95.9641 14.7377L96.0534 14.3957L96.1278 14.0388L96.2168 13.6968L96.3061 13.3548L96.3954 13.0128L96.4844 12.7451L96.5588 12.4031L96.6481 12.0611L96.7374 11.7191L96.8264 11.3771L96.901 11.0202L96.99 10.6782L97.0793 10.4254L97.1686 10.0685L97.2577 9.72647L97.332 9.38447L97.4213 9.04245L97.5106 8.68558L97.5996 8.34355L97.689 8.09075L97.7783 7.73389L97.8526 7.40675L97.9416 7.04986L98.0309 6.70786L98.1202 6.36583L98.2093 6.09817L98.2836 5.75617L98.3729 5.41414L98.4622 5.07214L98.5512 4.98291L98.9825 4.89371L99.4881 4.80447L100.008 4.71527L100.529 4.64091L100.96 4.55168L101.481 4.46247L102.001 4.37324L102.521 4.28404L103.027 4.19481L103.547 4.12045L104.068 4.03124L104.588 3.94201L105.094 3.85278H105.614V3.94201V4.19481L105.703 4.37324L105.793 4.46247L105.882 4.64091L105.956 4.80447L106.045 4.89371L106.135 5.07214L106.224 5.1465L106.313 5.32494L106.402 5.50337L106.477 5.57773L106.566 5.75617L106.655 5.8454L106.744 6.02383L106.833 6.1874L106.908 6.27663L106.997 6.45506L107.086 6.5294L107.175 6.70786L107.249 6.88629L107.339 6.96063L107.428 7.13909L107.517 7.22829H107.606L107.681 7.13909L107.77 6.96063L107.859 6.88629L107.948 6.70786L108.038 6.61863L108.112 6.45506L108.201 6.36583L108.29 6.27663L108.38 6.09817L108.469 6.02383L108.558 5.8454L108.632 5.75617L108.722 5.57773L108.811 5.50337L108.9 5.32494L108.989 5.23571L109.064 5.07214L109.153 4.98291L109.242 4.80447L109.331 4.71527L109.406 4.55168L109.495 4.46247L109.584 4.28404L109.673 4.19481L109.763 4.03124L109.837 3.94201L109.926 3.76358L110.015 3.68922L110.105 3.60001L110.194 3.42155L110.268 3.33235L110.357 3.16878L110.446 3.07955L110.536 2.91599L110.625 2.81189L110.714 2.64832L110.788 2.5591L110.877 2.39553L110.967 2.30631L111.056 2.12787L111.145 2.03865L111.219 1.87508L111.309 1.78586L111.398 1.60742L111.487 1.53307L111.561 1.35462L111.651 1.2654L111.74 1.10183L111.829 1.01261L111.918 0.834174L111.993 0.744951L112.082 0.655732L112.171 0.49216L112.26 0.40294ZM102.031 26.946C102.269 25.5482 102.492 24.0909 102.73 22.5742C102.967 21.0575 103.25 19.6299 103.577 18.2619L112.26 42.0093L123.472 43.0503C123.531 42.753 123.739 42.2623 124.111 41.5483C124.483 40.8496 124.676 40.433 124.676 40.2843C124.676 40.225 124.334 39.63 123.665 38.485C122.981 37.355 122.222 36.0763 121.39 34.6784C120.543 33.2813 119.74 31.9435 118.982 30.6798C118.982 30.6792 118.981 30.6789 118.981 30.6784C118.208 29.4144 117.747 28.6264 117.584 28.3141C116.498 26.485 115.308 24.5073 114.03 22.366C113.614 21.6969 113.034 20.7006 112.26 19.392C112.052 19.0649 111.904 18.8269 111.814 18.6485C111.725 18.4701 111.487 18.3065 111.101 18.1429C110.848 18.0537 110.55 17.9347 110.223 17.7563C109.882 17.5779 109.599 17.4589 109.391 17.3994L117.688 1.88995L112.707 1.10183L103.696 14.4254L104.752 4.70038L99.1165 5.6818L89.0797 44.344C89.3177 44.329 89.9126 44.1357 90.8939 43.779C91.8751 43.422 92.4997 43.184 92.7971 43.0653C93.8826 42.6636 95.1315 42.2176 96.5588 41.7417C96.8564 41.6526 97.4807 41.4293 98.4176 41.0873C98.9232 40.924 99.2502 40.8197 99.4138 40.7603C99.5624 40.7157 99.6961 40.4183 99.7854 39.883C99.9044 39.1396 100.038 38.426 100.172 37.7126L100.172 37.712C100.291 37.013 100.425 36.2844 100.544 35.541C100.752 34.1284 100.99 32.7007 101.257 31.2731C101.51 29.8457 101.763 28.4034 102.031 26.946Z" fill="black"/>
<path d="M102.031 26.946C102.269 25.5482 102.492 24.0909 102.73 22.5742C102.968 21.0574 103.25 19.6299 103.577 18.2619L112.26 42.0093L123.472 43.0503C123.531 42.7529 123.739 42.2623 124.111 41.5483C124.483 40.8496 124.676 40.433 124.676 40.2843C124.676 40.225 124.334 39.63 123.665 38.485C122.981 37.355 122.223 36.0763 121.39 34.6784C120.543 33.2812 119.74 31.9435 118.982 30.6798L118.981 30.6784C118.208 29.4144 117.747 28.6264 117.584 28.314C116.498 26.485 115.308 24.5073 114.03 22.366C113.614 21.6968 113.034 20.7005 112.26 19.392C112.052 19.0648 111.904 18.8269 111.814 18.6485C111.725 18.4701 111.487 18.3065 111.101 18.1429C110.848 18.0537 110.551 17.9347 110.224 17.7563C109.882 17.5778 109.599 17.4589 109.391 17.3994L117.688 1.88992L112.707 1.10181L103.696 14.4254L104.752 4.70035L99.1165 5.68178L89.0798 44.3439C89.3177 44.329 89.9127 44.1356 90.8939 43.7789C91.8752 43.422 92.4998 43.184 92.7971 43.0653C93.8826 42.6636 95.1315 42.2176 96.5588 41.7416C96.8564 41.6526 97.4807 41.4293 98.4176 41.0873C98.9232 40.9239 99.2502 40.8197 99.4138 40.7603C99.5625 40.7156 99.6962 40.4183 99.7855 39.883C99.9045 39.1396 100.038 38.4259 100.172 37.7125L100.172 37.712C100.291 37.013 100.425 36.2843 100.544 35.541C100.752 34.1283 100.99 32.7007 101.257 31.2731C101.51 29.8457 101.763 28.4034 102.031 26.946Z" fill="#D3AEFF"/>
<path d="M76.2623 12.7897C76.3666 12.8343 76.7382 13.2507 77.3628 14.0537C77.9872 14.8567 78.6564 15.734 79.385 16.6857C80.0986 17.6374 80.7676 18.5147 81.3772 19.3028C81.9721 20.091 82.3141 20.4776 82.4031 20.4776C82.6411 20.4776 83.667 19.9571 85.4811 18.8865C87.295 17.8158 88.4699 17.221 89.0051 17.1021L82.0018 1.01265C81.5558 1.13161 80.6189 1.54797 79.1617 2.29148C77.7048 3.03498 76.7233 3.5257 76.203 3.79334L74.7754 4.50713L73.3779 5.206C73.1102 5.32496 72.8723 5.44393 72.6493 5.54803C72.4113 5.65212 72.1734 5.75619 71.9357 5.87516C71.6827 5.99412 71.4597 6.48482 71.2664 7.31755C70.9691 8.47744 70.6865 9.62243 70.4338 10.7377C70.1662 11.8529 69.8985 12.983 69.6012 14.128C69.4525 14.6634 69.3039 15.2284 69.1552 15.8084C69.0063 16.3883 68.8726 16.9534 68.7686 17.5184C68.59 18.3958 68.4563 18.9608 68.3373 19.2285C68.2183 19.4961 67.6681 19.63 66.6868 19.63L63.4158 46.1137L81.0502 48.359L91.8302 28.5222L86.4774 24.5222L74.6864 36.9834L76.2623 12.7897ZM82.0611 0.0907079L82.2398 0.0163574H82.4031L82.4924 0.179928L82.5668 0.343498L82.6561 0.43272L82.7454 0.59629L82.8344 0.685509L82.9087 0.774731L82.998 0.938301L83.0873 1.02752L83.1617 1.10187L83.2507 1.19109L83.34 1.36953L83.4143 1.44388L83.5036 1.5331L83.5927 1.62233L83.682 1.78589L83.7563 1.87512L83.8456 1.94947L83.9199 2.12791L84.009 2.21713L84.0983 2.29148L84.1876 2.3807L84.2619 2.54427L84.3509 2.63349L84.4403 2.72271L84.5146 2.88628L84.6039 2.97551L84.6932 3.04984L84.7675 3.13907L84.8565 3.30264L84.9459 3.39187L85.0202 3.48107L85.1095 3.55544L85.1985 3.73387L85.2878 3.8231L85.3622 3.89744L85.4515 4.061L85.5405 4.15024L85.6148 4.23947L85.7041 4.32867L85.7934 4.49224L85.8678 4.58147L85.9568 4.6707L86.0461 4.83426L86.1354 4.9086L86.2097 4.99783L86.2988 5.08706L86.3731 5.25063L86.4624 5.33983L86.5517 5.42906L86.6407 5.51829L86.7154 5.68186L86.8044 5.75619L86.8937 5.84542L86.983 6.02386L87.0573 6.09822L87.1464 6.18742L87.2207 6.27665L87.31 6.44022L87.3993 6.52945L87.4883 6.60379L87.5627 6.78225L87.652 6.85658L87.7413 6.94581L87.8156 7.03502L87.9046 7.19861L87.9939 7.28781L88.0683 7.36218L88.1576 7.45138L88.2466 7.62984L88.3209 7.70418L88.4102 7.79341L88.4995 7.95698L88.5886 8.04618L88.6632 8.13541L88.7522 8.20977L88.8265 8.38821L88.9158 8.47744L89.0051 8.55177L89.0942 8.641L89.1685 8.80457L89.2578 8.8938L89.3471 8.983L89.4362 9.14657L89.5105 9.2358L89.5998 9.32503L89.6741 9.39937L89.7634 9.56293L89.8525 9.65216L89.9418 9.74137L90.0161 9.90496L90.1054 9.99416L90.1944 10.1577L90.2837 10.3362L90.3581 10.589L90.4474 10.7526L90.5217 10.931L90.6107 11.0946L90.7 11.3474L90.7893 11.5109L90.8637 11.6894L90.953 11.9421L91.042 12.1057L91.1163 12.2841L91.2056 12.4477L91.295 12.7005L91.3693 12.8641L91.4583 13.0425L91.5476 13.2953L91.6219 13.4589L91.7113 13.6373L91.8003 13.8009L91.8896 14.0537L91.9639 14.2173L92.0532 14.3957L92.1276 14.6485L92.2166 14.8121L92.3059 14.9756L92.3952 15.1541L92.4695 15.4069L92.5586 15.5853L92.6479 15.7489L92.7372 16.0017L92.8115 16.1653L92.9005 16.3437L92.9751 16.5073L93.0642 16.7601L93.1535 16.9385L93.2428 17.1021L93.3171 17.3548L93.4061 17.5184L93.4954 17.6969L93.5847 17.8604L93.6591 18.1132L93.7481 18.2768L93.8224 18.4552L93.9117 18.6188L94.0011 18.8716L94.0901 19.05L94.1644 19.2136L94.2537 19.4664L94.343 19.63L94.4174 19.8084L94.5064 19.972L94.5957 20.2397L94.67 20.4032L94.7593 20.5668L94.8484 20.8196L94.923 20.9832L95.012 21.1467L95.1013 21.3252L95.1906 21.578L95.2649 21.7564L95.354 21.92L95.4283 22.1727L95.5176 22.3363L95.6069 22.5148L95.6959 22.6783L95.7703 22.9311L95.8596 23.0947L95.9489 23.2731V23.4367L95.8596 23.6895L95.7703 23.9423L95.6069 24.0315L95.4283 24.1207L95.2649 24.21L95.1013 24.2843L94.923 24.3735L94.7593 24.4479L94.5957 24.5371L94.4174 24.6263L94.2537 24.7155L94.1644 24.7899L94.0011 24.8791L93.8224 24.9683L93.6591 25.0427L93.4954 25.1319L93.3171 25.2211L93.1535 25.2955L92.9751 25.3847L92.8115 25.4739L92.6479 25.5631L92.5586 25.6375L92.3952 25.7267L92.2166 25.8011L92.0532 25.8903L91.8896 25.9795L91.7113 26.0687L91.5476 26.1431L91.3693 26.2323L91.2056 26.3215L91.042 26.3959L90.8637 26.4851L90.7893 26.5743L90.7 26.6486L90.7893 26.7379L90.8637 26.8271L91.042 26.9014L91.1163 26.9906L91.2056 27.0799L91.3693 27.1691L91.4583 27.2434L91.5476 27.3327L91.7113 27.407L91.8003 27.4962L91.9639 27.5854L92.0532 27.6747L92.1276 27.7491L92.3059 27.8382L92.3952 27.9275L92.4695 28.0168L92.6479 28.0911L92.7372 28.1802L92.8115 28.2545L92.9751 28.3438L93.0642 28.4331L93.1535 28.5222L93.3171 28.5965L93.4061 28.6858L93.4954 28.7751L93.6591 28.8642L93.7481 28.9385L93.8224 29.0278L94.0011 29.1021L94.0901 29.1915L94.1644 29.2808L94.343 29.3698L94.4174 29.4441L94.5064 29.5335L94.5957 29.6228L94.7593 29.6971L94.8484 29.7861L94.923 29.8755L95.1013 29.9498L95.1906 30.0391L95.2649 30.1281L95.4283 30.2025L95.5176 30.2918L95.6069 30.3811L95.7703 30.4554L95.8596 30.5445L95.9489 30.6338L96.0379 30.7081L96.2015 30.7974L96.2759 30.8865L96.3652 30.9758L96.5435 31.0501L96.6178 31.1394L96.7072 31.2288L96.8855 31.3031L96.9598 31.3921L97.0491 31.4814L97.1235 31.5558L97.3018 31.6451L97.3911 31.7341L97.4654 31.8234L97.6438 31.8978L97.7181 31.9871L97.8074 32.0614L97.971 32.1505L98.0601 32.2398L98.1494 32.4925V32.8345L98.0601 32.9981L97.971 33.1765L97.8967 33.3401L97.8074 33.5038L97.7181 33.5931L97.6438 33.7565L97.5547 33.9351L97.4654 34.0985L97.3911 34.2771L97.3018 34.4405L97.2128 34.6041L97.1235 34.6934L97.0491 34.8568L96.9598 35.0354L96.8855 35.1991L96.7962 35.3624L96.7072 35.5411L96.6178 35.6301L96.5435 35.7938L96.4542 35.9574L96.3652 36.1358L96.2759 36.2994L96.2015 36.4777L96.1122 36.6414L96.0379 36.7157L95.9489 36.8941L95.8596 37.0577L95.7703 37.2361L95.6959 37.3997L95.6069 37.5634L95.5176 37.6524L95.4283 37.8161L95.354 37.9944L95.2649 38.1581L95.1906 38.3217L95.1013 38.5001L95.012 38.5894L94.923 38.7528L94.8484 38.9314L94.7593 39.0948L94.67 39.2584L94.5957 39.437L94.5064 39.6004L94.4174 39.6897L94.343 39.8534L94.2537 40.0167L94.1644 40.1954L94.0901 40.3587L94.0011 40.5374L93.9117 40.6117L93.8224 40.7901L93.7481 40.9537L93.6591 41.1171L93.5847 41.2957L93.4954 41.4594L93.4061 41.6227L93.3171 41.712L93.2428 41.8904L93.1535 42.054L93.0642 42.2177L92.9751 42.396L92.9005 42.5597L92.8115 42.6487L92.7372 42.8124L92.6479 42.976L92.5586 43.1544L92.4695 43.318L92.3952 43.4964L92.3059 43.66L92.2166 43.7493L92.1276 43.9127L92.0532 44.0913L91.9639 44.2547L91.8896 44.4184L91.8003 44.5967L91.7113 44.671L91.6219 44.8497L91.5476 45.0131L91.4583 45.1917L91.3693 45.3551L91.295 45.5187L91.2056 45.608L91.1163 45.7717L91.042 45.95L90.953 46.1137L90.8637 46.277L90.7893 46.4557L90.7 46.619L90.6107 46.7083L90.5217 46.872L90.4474 47.0504L90.3581 47.214L90.2837 47.3924L90.1944 47.556L90.1054 47.6303L90.0161 47.8087L89.9418 47.9723L89.8525 48.1507L89.7634 48.3143L89.6741 48.478L89.5998 48.6563L89.5105 48.7307L89.4362 48.909L89.3471 48.9983L89.2578 49.0727L89.0942 49.162H81.2138L80.5446 49.0727L79.8606 48.9983L79.1917 48.909L78.5077 48.82L77.9128 48.7307L77.2439 48.6563L76.5746 48.567L75.8907 48.478L75.2067 48.4036L74.5378 48.3143L73.8535 48.225L73.1846 48.1507L72.5899 48.0616L71.9057 47.9723L71.2367 47.898L70.5528 47.8087L69.8835 47.7197L69.1996 47.6303L68.5157 47.556L67.8614 47.4667L67.1924 47.3924L66.5978 47.303L65.9136 47.214L65.2296 47.1247L64.5606 47.0504L63.8914 46.961L63.2075 46.872L62.6128 46.7827V46.3663L62.7021 45.6973L62.7765 45.0131L62.8655 44.344L62.9548 43.66L63.0441 42.976L63.1184 42.2177L63.2075 41.5484L63.2968 40.8644L63.3861 40.1954L63.4604 39.5114L63.5494 38.8421L63.6238 38.1581L63.7131 37.4891L63.8024 36.8048L63.8914 36.1358L63.9657 35.4518L64.055 34.7825L64.1443 34.0985L64.2187 33.3401L64.308 32.6711L64.397 31.9871L64.4713 31.3031L64.5606 30.6338L64.65 29.9498L64.7243 29.2808L64.8133 28.5965L64.9026 27.9275L64.9919 27.2434L65.0663 26.5743L65.1553 25.8903L65.2296 25.2211L65.3189 24.4479L65.4082 23.7787L65.4973 23.0947L65.5716 22.4255L65.6609 21.7564L65.7502 21.0724L65.8392 20.4032L65.9136 19.7192L66.0029 19.05L66.2555 18.9608L66.9248 18.8716L67.5194 18.7972L67.698 18.708L67.7724 18.366L67.8614 18.024L67.9507 17.6969L68.025 17.3548L68.1143 17.0128L68.2034 16.6708L68.2927 16.3437L68.367 16.0017L68.4563 15.6597L68.5157 15.3177L68.605 14.9013L68.6943 14.5593L68.7833 14.2173L68.8576 13.8901L68.9469 13.5481L69.0362 13.2061L69.1253 12.8641L69.1996 12.5369L69.2889 12.1949L69.3632 11.8529L69.4525 11.4366L69.5416 11.0946L69.6309 10.7526L69.7052 10.4105L69.7945 10.0834L69.8835 9.74137L69.9729 9.39937L70.0472 9.05737L70.1365 8.71534L70.2108 8.38821L70.3001 8.04618L70.3892 7.62984L70.4785 7.28781L70.5528 6.94581L70.6421 6.60379L70.7311 6.27665L70.8055 5.93465L70.8948 5.59263L70.9841 5.51829L71.1474 5.42906L71.3111 5.33983L71.4894 5.25063L71.653 5.17626L71.8167 5.08706L71.995 4.99783L72.1586 4.9086L72.337 4.83426L72.5006 4.74503L72.6643 4.6707L72.8426 4.58147L73.0062 4.49224L73.1846 4.40303L73.3482 4.32867L73.5116 4.23947L73.7792 4.15024L73.9428 4.061L74.1065 3.98667L74.2848 3.89744L74.4485 3.8231L74.6121 3.73387L74.7904 3.64464L74.9541 3.55544L75.1174 3.48107L75.296 3.39187L75.4594 3.30264L75.638 3.22828L75.8014 3.13907L75.965 3.04984L76.1433 2.97551L76.307 2.88628L76.4856 2.79705L76.6489 2.72271L76.8126 2.63349L76.9909 2.54427L77.1545 2.46992L77.3329 2.3807L77.4965 2.29148L77.6602 2.21713L77.9128 2.12791L78.0912 2.03869L78.2548 1.94947L78.4184 1.87512L78.5968 1.78589L78.7604 1.71155L78.9387 1.62233L79.1024 1.5331L79.266 1.44388L79.4444 1.36953L79.608 1.28031L79.7863 1.19109L79.95 1.10187L80.1133 1.02752L80.2919 0.938301L80.4556 0.863951L80.6339 0.774731L80.7975 0.685509L80.9609 0.59629L81.1395 0.52194L81.3029 0.43272L81.4815 0.343498L81.6448 0.254279L81.8978 0.179928L82.0611 0.0907079Z" fill="black"/>
<path d="M76.2623 12.7898C76.3666 12.8344 76.7382 13.2508 77.3628 14.0537C77.9871 14.8567 78.6564 15.7341 79.385 16.6857C80.0986 17.6374 80.7676 18.5147 81.3772 19.3029C81.9721 20.091 82.3141 20.4776 82.4031 20.4776C82.6411 20.4776 83.667 19.9572 85.4811 18.8865C87.295 17.8159 88.4699 17.2211 89.0051 17.1021L82.0018 1.0127C81.5558 1.13165 80.6189 1.54802 79.1617 2.29152C77.7048 3.03502 76.7233 3.52575 76.203 3.79338L74.7754 4.50717L73.3779 5.20604C73.1102 5.325 72.8723 5.44397 72.6493 5.54807C72.4113 5.65217 72.1733 5.75624 71.9357 5.8752C71.6827 5.99417 71.4597 6.48486 71.2664 7.31759C70.9691 8.47748 70.6865 9.62247 70.4338 10.7377C70.1662 11.853 69.8985 12.9831 69.6012 14.1281C69.4525 14.6634 69.3039 15.2285 69.1552 15.8084C69.0063 16.3883 68.8726 16.9534 68.7686 17.5185C68.59 18.3958 68.4563 18.9609 68.3373 19.2285C68.2183 19.4962 67.6681 19.63 66.6868 19.63L63.4157 46.1137L81.0502 48.359L91.8302 28.5222L86.4774 24.5223L74.6864 36.9834L76.2623 12.7898Z" fill="#D3AEFF"/>
<path d="M47.6695 12.1056L48.5764 20.1503L46.2273 19.392L47.6695 12.1056ZM44.7848 0.358285L44.8591 0.283936H45.2904L45.7067 0.358285L45.9596 0.447505L46.3016 0.521854L46.5543 0.611077L46.8962 0.700296L47.2235 0.789516L47.4911 0.863868L47.8181 0.953088L48.0708 1.04231L48.5021 1.11666L48.8291 1.20588L49.0967 1.2951L49.439 1.36945L49.766 1.45867L50.0186 1.54789L50.3606 1.63711L50.6136 1.71146L50.9555 1.80068L51.2975 1.87503L51.6245 1.96425L51.9665 2.05347L52.2194 2.14269L52.4721 2.21704L52.5614 2.30626L52.6357 2.39548L52.7247 2.4847L52.814 2.64827L52.9034 2.72263L52.9777 2.81184L53.0667 2.90107L53.156 3.06464L53.2453 3.15387L53.3197 3.22821L53.409 3.31744L53.4833 3.40664L53.5723 3.57021L53.6616 3.65944L53.7509 3.74867L53.8253 3.823L53.9143 4.00144L54.0036 4.0758L54.0929 4.16503L54.1672 4.25423L54.2563 4.4178L54.3306 4.50703L54.4199 4.59626L54.5092 4.6706L54.5982 4.83416L54.6726 4.92339L54.7619 5.01262L54.8512 5.10183L54.9255 5.17619L55.0145 5.35462L55.1038 5.42899L55.1782 5.51819L55.2675 5.60742L55.3565 5.68176L55.4311 5.86022L55.5201 5.94942L55.6095 6.02379L55.6838 6.11299L55.7731 6.27658L55.8621 6.36579L55.9365 6.45502L56.0258 6.52935L56.1151 6.61858L56.2041 6.79702L56.2784 6.87138L56.3677 6.96058L56.4421 7.12418L56.5314 7.21338L56.6204 7.37695L56.7097 7.46618L56.784 7.55541L56.8733 7.62974L56.9624 7.71897L57.0517 7.88254L57.126 7.97177L57.2153 8.06097L57.2896 8.13534L57.3789 8.31377L57.468 8.38811L57.5573 8.47734L57.6316 8.56657L57.7209 8.6409L57.8099 8.81936L57.8993 8.90857L57.9736 8.98293L58.0629 9.07213L58.1372 9.2357L58.2263 9.32493L58.3156 9.41416L58.4049 9.4885L58.4792 9.57773L58.5682 9.74129L58.6575 9.83052L58.7319 9.91973L58.8212 10.0833L58.9102 10.1725L58.9845 10.2618L59.0738 10.3361L59.1631 10.4253L59.2375 10.5889L59.3265 10.6781L59.4158 10.7673L59.4901 10.8417L59.5794 11.0201L59.6687 11.1093L59.7431 11.1837L59.8321 11.2729L59.9214 11.3473L60.0107 11.5257L60.085 11.6149L60.1741 11.6893L60.2484 11.7785L60.3377 11.9421L60.427 12.0313L60.516 12.1205L60.5904 12.2841L60.6797 12.5369L60.769 12.8789L60.858 13.1317L60.9324 13.3845L61.0217 13.7265L61.096 14.0685L61.1853 14.3064L61.2743 14.5741L61.3636 14.9012L61.438 15.154L61.5273 15.496L61.6166 15.7488L61.7056 16.0908L61.7799 16.4328L61.8692 16.6856L61.9436 17.0127L62.0329 17.2655L62.1219 17.5332L62.2112 17.8603L62.2855 18.1131L62.3748 18.4551L62.4639 18.7972L62.5382 19.05L62.6275 19.392L62.7168 19.6448L62.7912 19.9719L62.8802 20.2396L62.9545 20.4924L63.0438 20.7451L63.1331 21.0723L63.2222 21.4143L63.2965 21.6671L63.3858 22.0091L63.4601 22.2619L63.5494 22.589L63.6387 22.8418L63.7278 23.1838L63.8021 23.5258L63.8914 23.7786L63.9807 24.1206L64.055 24.3734L64.1441 24.6262L64.2334 24.9534L64.3077 25.221L64.397 25.563L64.486 25.8902L64.5604 26.143L64.6497 26.3958L64.739 26.7378L64.828 26.9906L64.9023 27.3326L64.9916 27.5854L65.066 27.9124L65.1553 28.1801L65.2443 28.5221L65.3336 28.7601L65.4079 29.1021L65.4973 29.3548L65.5866 29.6968L65.6609 29.9497L65.7499 30.2917L65.8392 30.6337L65.9136 30.8864L66.0029 31.2137L66.0919 31.4664L66.1812 31.7194L66.2555 31.987L66.3448 32.3141L66.4192 32.5668L66.5082 32.9088L66.5975 33.2508L66.6868 33.5037L66.7611 33.8457L66.8502 34.0984L66.9395 34.4257L67.0288 34.6934L67.1031 35.0204L67.1921 35.2731L67.2665 35.6151L67.3558 35.868L67.4451 36.21L67.5341 36.4627L67.6087 36.8047L67.6977 37.0577L67.7871 37.3847L67.8614 37.6524L67.9507 37.9797L68.0397 38.2324L68.114 38.5744L68.2034 38.827L68.2927 39.08L68.367 39.422L68.456 39.6747L68.5453 40.0167L68.6346 40.344L68.709 40.6117L68.798 40.9387L68.8723 41.1914L68.9616 41.5334L69.0509 41.7863L69.14 42.1283L69.2143 42.381L69.3036 42.634L69.3929 42.976L69.4672 43.318L69.5565 43.5707L69.6456 43.8234L69.7199 44.1507L69.8092 44.4183L69.8985 44.7453L69.9875 45.0873L70.0619 45.3403V45.935L69.9875 46.188L69.8985 46.277L69.8092 46.3513L69.7199 46.4406L69.6456 46.53L69.5565 46.619L69.4672 46.6933L69.3929 46.857L69.3036 46.9463L69.2143 47.0353L69.14 47.1246L69.0509 47.199L68.9616 47.2883L68.8723 47.3626L68.798 47.4517L68.709 47.541L68.6346 47.6303L68.5453 47.7046H67.7871L67.2665 47.6303L66.8502 47.541L66.3448 47.4517L65.9136 47.3626L65.4973 47.2883L64.9916 47.199L64.486 47.1246L64.055 47.0353L63.5494 46.9463L63.0438 46.857L62.6275 46.7826L62.2112 46.6933L61.9436 46.619L61.7799 46.53L61.5273 46.4406L61.2743 46.3513L61.0217 46.277L60.769 46.188L60.516 46.0986L60.2484 46.0093L60.0107 45.935L59.8321 45.8457L59.5794 45.7713L59.3265 45.6823L59.0738 45.593L58.8212 45.5037L58.5682 45.4293L58.3156 45.3403L58.0629 45.251L57.8993 45.1767L57.5573 45.0873L57.2896 44.9983L57.0517 44.924L56.784 44.8347L56.5314 44.7453L56.2784 44.6563L56.1151 44.582L55.8621 44.4927L55.6095 44.4183L55.3565 44.329L55.1038 44.24L54.8512 44.1507L54.5982 44.0763L54.3306 43.987L54.1672 43.898L53.9143 43.8234L53.6616 43.7343L53.409 43.645L53.156 43.5707L52.9034 43.4814L52.7397 43.3773L52.7247 43.7343L52.6357 44.1507L52.5614 44.4927L52.4721 44.8347L52.3977 44.924L52.3084 45.0873L52.2194 45.1767L52.1301 45.251L51.9665 45.3403L51.7138 45.4293L51.5502 45.5037L51.3718 45.593L51.1189 45.6823L50.9555 45.7713L50.7026 45.8457L50.5242 45.935L50.3606 46.0093L50.1079 46.0986L49.9443 46.188L49.766 46.277L49.5133 46.3513L49.3497 46.4406L49.0967 46.53L48.9184 46.619L48.7548 46.6933L48.5021 46.7826L48.3238 46.857L48.0708 46.9463L47.9075 47.0353L47.6545 47.1246L47.4911 47.199L47.3125 47.2883L47.0599 47.3626L46.8069 47.4517L46.7179 47.541L46.465 47.6303L46.2123 47.7046L46.0487 47.7937L45.8703 47.883L45.6324 47.9573L45.454 48.0466L45.2013 48.1357L45.0227 48.2103L44.7848 48.2993L44.6064 48.3886L44.4428 48.463L44.1901 48.5523L44.0118 48.6413L43.7589 48.7306L43.6845 48.805L43.4169 48.8943L43.1789 48.9686L43.0006 49.0576L42.8369 49.147L42.5843 49.2363L42.4059 49.3106H40.7108L39.1049 49.2363L37.5884 49.147L35.9825 49.0576L34.451 48.9686L32.8451 48.8943L31.3436 48.805L29.5591 48.7306L29.3957 48.6413L29.3064 48.5523L29.2321 48.463L29.1428 48.2993L29.0538 48.2103L28.9792 48.1357L28.8901 47.9573L28.8008 47.883L28.7265 47.7046L28.6372 47.6303L28.5482 47.4517L28.4738 47.3626L28.3845 47.2883L28.2952 47.1246L28.2062 47.0353L28.1319 46.857L28.0426 46.7826L27.9682 46.619L27.8789 46.53L27.7899 46.4406L27.7006 46.277L27.6262 46.188L27.537 46.0093L27.4478 45.935L27.3586 45.7713L27.2842 45.6823L27.195 45.593L27.1207 45.4293V44.9983L27.195 44.7453L27.2842 44.582L27.3586 44.329L27.4478 44.0763L27.537 43.898L27.6262 43.645L27.7006 43.4814L27.7899 43.318L27.8789 43.0503L27.9682 42.8123L28.0426 42.634L28.1319 42.381L28.2062 42.2176L28.2952 41.9647L28.3845 41.7863L28.4738 41.5334L28.5482 41.37L28.6372 41.1914L28.7265 40.8494L28.8008 40.686L28.8901 40.5223L28.9792 40.2697L29.0538 40.106L29.1428 39.8383L29.2321 39.6747L29.3064 39.422L29.3957 39.2584L29.4848 39.0057L29.5591 38.738L29.6484 38.5744L29.7377 38.3217L29.812 38.158L29.9011 37.9797L29.9904 37.7267L30.0797 37.474L30.154 37.3104L30.243 37.1467L30.3174 36.8791L30.4067 36.6264L30.496 36.4627L30.585 36.21L30.6593 36.0317L30.7487 35.868L30.838 35.6151L30.927 35.3624L31.0013 35.1987L31.0906 34.9461L31.165 34.6934L31.2543 34.5147L31.3436 34.2621L31.4326 34.0984L31.5069 33.9201L31.5962 33.6671L31.6855 33.4144L31.7746 33.2508L31.8489 32.9981L31.9382 32.8344L32.0125 32.5668L32.1018 32.3141L32.1909 32.1504L32.2802 31.987L32.3545 31.8084L32.4438 31.4664L32.5328 31.3028L32.6072 31.1394L32.6965 30.8864L32.7858 30.7081L32.8451 30.4554L32.9344 30.2917L33.0238 30.0391L33.0981 29.8754L33.1871 29.6077L33.2764 29.3548L33.3657 29.1914L33.4401 28.9384L33.5291 28.7601L33.6034 28.5964L33.6927 28.3438L33.782 28.0911L33.8711 27.9124L33.9454 27.6746L34.0347 27.4961L34.124 27.2434L34.1983 27.0798L34.2874 26.827L34.3767 26.6485L34.451 26.485L34.5403 26.143L34.6293 25.9794L34.7186 25.801L34.793 25.563L34.8823 25.3846L34.9566 25.1318L35.0459 24.879L35.1349 24.7155L35.2242 24.537L35.2986 24.2842L35.3879 24.0314L35.4769 23.8679L35.5662 23.6002L35.6405 23.4366L35.7299 23.2731L35.8042 22.931L35.8932 22.7675L35.9825 22.589L36.0718 22.3362L36.1462 22.0834L36.2352 21.9199L36.3245 21.7563L36.3988 21.4886L36.4881 21.3251L36.5772 21.0723L36.6515 20.8195L36.7408 20.6559L36.8301 20.4924L36.9044 20.2396L36.9937 19.9719L37.0828 19.8083L37.1721 19.5555L37.2464 19.392L37.3357 19.2135L37.41 18.9607L37.4991 18.7079L37.5884 18.5444L37.6777 18.2916L37.752 18.1131L37.841 17.8603L37.9303 17.6076L38.0047 17.444L38.094 17.2655L38.183 17.102L38.2573 16.76L38.3467 16.5964L38.436 16.4328L38.525 16.18L38.5993 16.0016L38.6886 15.7488L38.763 15.496L38.8523 15.3324L38.9416 15.154L39.0306 14.9012L39.1049 14.6484L39.1942 14.4848L39.2835 14.2321L39.3726 14.0685L39.4469 13.8008L39.5362 13.548L39.6105 13.3845L39.6998 13.2209L39.7889 12.9532L39.8782 12.7897L39.9525 12.5369L40.0418 12.2841L40.1308 12.1205L40.2052 11.9421L40.2945 11.6893L40.3838 11.4365L40.4581 11.2729L40.5471 11.1093L40.6364 10.8417L40.7108 10.5889L40.8001 10.4253L40.8891 10.1725L40.9784 9.99409L41.0528 9.74129L41.1421 9.4885L41.2164 9.32493L41.3057 9.1465L41.3947 8.90857L41.484 8.73013L41.5584 8.47734L41.6477 8.22454L41.7367 8.06097L41.811 7.88254L41.9003 7.62974L41.9896 7.37695L42.064 7.21338L42.153 7.03495L42.2423 6.79702L42.3316 6.61858L42.4059 6.36579L42.495 6.11299L42.5843 5.94942L42.6586 5.77099L42.7479 5.51819L42.8369 5.26539L42.9113 5.10183L43.0006 4.83416L43.0899 4.6706L43.1789 4.4178L43.2535 4.16503L43.3426 4.00144L43.4169 3.823L43.5062 3.57021L43.5955 3.40664L43.6845 3.15387L43.7589 2.90107L43.8482 2.72263L43.9375 2.55905L44.0118 2.30626L44.1008 2.05347L44.1901 1.87503L44.2645 1.71146L44.3538 1.45867L44.4428 1.2951L44.5171 1.04231L44.6064 0.789516L44.6957 0.611077L44.7848 0.358285ZM28.0426 45.0873C28.0426 45.236 28.2952 45.6673 28.8008 46.3513C29.3064 47.0503 29.6187 47.4963 29.7377 47.7046L29.7674 47.7937L41.6624 42.8867L43.7738 33.5037L43.0006 32.5668L44.7997 23.8084L49.5133 25.6374C49.5133 25.9943 49.5876 26.5593 49.751 27.3326C49.9146 28.1058 50.0336 28.7007 50.1229 29.0871C50.3906 30.4554 50.5986 31.6151 50.7769 32.5817C50.9555 33.7267 51.1488 34.8867 51.3718 36.0614C51.5948 37.236 51.8178 38.381 52.0558 39.4963C52.1151 39.7787 52.1598 40.0763 52.2044 40.3737C52.2491 40.671 52.3084 40.9537 52.3681 41.2213C52.4424 41.6377 52.4871 41.95 52.5018 42.1283C52.5167 42.3067 52.6951 42.4554 53.037 42.5743C53.5277 42.7827 54.0483 42.961 54.5835 43.1394C55.1188 43.318 55.6242 43.4963 56.1298 43.645C57.0367 43.9573 58.0629 44.344 59.2225 44.79C60.3824 45.251 61.4083 45.578 62.3152 45.7863L63.7278 44.24C63.4454 43.6897 63.1331 42.738 62.7762 41.3997C62.4192 40.0614 62.1666 39.0354 62.0329 38.3217C61.8543 37.4887 61.5866 36.4924 61.2446 35.3474C60.888 34.2024 60.5757 33.2064 60.308 32.3437C59.6538 30.4107 59.0591 28.4331 58.5535 26.3958C58.0329 24.3586 57.483 22.3511 56.888 20.3883C56.2637 18.4105 55.6988 16.4328 55.1635 14.4402C54.6282 12.4476 54.0779 10.4699 53.4833 8.4922C53.3344 8.01637 53.1857 7.52564 53.052 7.02008C52.9181 6.51448 52.7844 6.02379 52.6357 5.53306C52.5167 5.19106 52.3681 4.68546 52.2044 4.01633C52.0261 3.3323 51.7585 2.94567 51.4312 2.84158C50.5242 2.60366 49.4687 2.36574 48.2641 2.11295C47.0449 1.87503 46.0786 1.56276 45.3647 1.20588C45.2757 1.56276 45.0971 2.00886 44.8591 2.54418C44.6064 3.07951 44.4131 3.54047 44.2794 3.9271C43.9225 4.90853 43.5655 5.81559 43.2236 6.67805C42.8369 7.62974 42.4803 8.5517 42.1233 9.45876C41.7664 10.3658 41.4097 11.2729 41.0528 12.18C40.3391 13.9644 39.5809 15.7934 38.7926 17.6373C38.0047 19.4961 37.3058 21.3251 36.6961 23.1392C36.0568 24.998 35.3283 26.827 34.5106 28.6411C33.6777 30.4554 32.9641 32.2694 32.3395 34.0837C32.2208 34.4701 31.9232 35.2137 31.4623 36.3437C30.9866 37.474 30.5107 38.6637 30.0054 39.8977C29.4997 41.147 29.0388 42.277 28.6372 43.303C28.2359 44.344 28.0426 44.9387 28.0426 45.0873Z" fill="black"/>
<path fill-rule="evenodd" clip-rule="evenodd" d="M28.0426 45.0875C28.0426 45.2362 28.2952 45.6675 28.8008 46.3515C29.3065 47.0505 29.6188 47.4965 29.7377 47.7048L29.7674 47.7938L41.6624 42.8868L43.7738 33.5039L43.0006 32.5669L44.7998 23.8085L49.5133 25.6376C49.5133 25.9945 49.5877 26.5595 49.751 27.3327C49.9147 28.106 50.0336 28.7009 50.1229 29.0873C50.3906 30.4556 50.5986 31.6153 50.7769 32.5819C50.9555 33.7269 51.1489 34.8869 51.3718 36.0615C51.5948 37.2362 51.8178 38.3812 52.0558 39.4965C52.1151 39.7789 52.1598 40.0765 52.2045 40.3738C52.2491 40.6712 52.3085 40.9538 52.3681 41.2215C52.4424 41.6378 52.4871 41.9502 52.5018 42.1285C52.5167 42.3069 52.6951 42.4555 53.0371 42.5745C53.5277 42.7828 54.0483 42.9612 54.5836 43.1395C55.1188 43.3182 55.6242 43.4965 56.1298 43.6452C57.0367 43.9575 58.0629 44.3442 59.2225 44.7902C60.3824 45.2512 61.4083 45.5782 62.3152 45.7865L63.7278 44.2401C63.4454 43.6898 63.1331 42.7382 62.7762 41.3999C62.4192 40.0615 62.1666 39.0355 62.0329 38.3219C61.8543 37.4889 61.5866 36.4926 61.2447 35.3476C60.888 34.2026 60.5757 33.2066 60.3081 32.3439C59.6538 30.4109 59.0592 28.4333 58.5535 26.396C58.033 24.3587 57.483 22.3513 56.8881 20.3884C56.2637 18.4107 55.6988 16.433 55.1635 14.4404C54.6282 12.4478 54.078 10.4701 53.4833 8.49238C53.3344 8.01655 53.1857 7.52582 53.052 7.02025C52.9181 6.51466 52.7844 6.02396 52.6357 5.53323C52.5167 5.19123 52.3681 4.68564 52.2045 4.01651C52.0261 3.33248 51.7585 2.94585 51.4312 2.84175C50.5243 2.60384 49.4687 2.36592 48.2641 2.11313C47.0449 1.87521 46.0786 1.56294 45.3647 1.20605C45.2757 1.56294 45.0971 2.00904 44.8591 2.54436C44.6065 3.07968 44.4131 3.54065 44.2795 3.92728C43.9225 4.9087 43.5656 5.81577 43.2236 6.67823C42.837 7.62992 42.4803 8.55188 42.1233 9.45894L41.0528 12.1802C40.3392 13.9646 39.5809 15.7936 38.7926 17.6375C38.0047 19.4962 37.3058 21.3253 36.6962 23.1394C36.0569 24.9982 35.3283 26.8272 34.5106 28.6413C33.6778 30.4556 32.9641 32.2696 32.3396 34.0839C32.2208 34.4703 31.9233 35.2139 31.4623 36.3439C30.9866 37.4742 30.5107 38.6638 30.0054 39.8979C29.4998 41.1472 29.0388 42.2772 28.6372 43.3032C28.2359 44.3442 28.0426 44.9388 28.0426 45.0875ZM48.5764 20.1505L47.6695 12.1058L46.2273 19.3921L48.5764 20.1505Z" fill="#D3AEFF"/>
<path d="M28.2955 41.8903C27.5371 42.3067 26.4963 42.6786 25.173 43.0057C24.9499 43.08 24.3552 43.2287 23.4036 43.4517C22.452 43.675 21.9316 43.8383 21.8721 43.9276C22.4074 43.987 23.2252 44.2846 24.3552 44.8199C25.4852 45.3553 26.3625 45.6973 26.987 45.831C27.3141 45.9203 28.2212 45.727 29.6931 45.266C31.1503 44.8199 32.1018 44.5373 32.5182 44.4333L28.2955 41.8903ZM15.5677 15.0946L9.53093 14.7972L8.63881 1.39923L2.20059 1.05722V2.33605L2.09651 13.7562L1.18951 13.8603L0.75831 13.8306V20.0909H1.94782C2.17085 20.0909 2.26007 20.5667 2.2452 21.4887C2.21546 22.4255 2.20059 23.0352 2.20059 23.3028C2.20059 23.8538 2.18646 24.4047 2.17197 24.9694C2.1716 24.9839 2.17122 24.9984 2.17085 25.0129C2.15598 25.5928 2.15598 26.143 2.18572 26.6784C2.23033 27.7193 2.26007 28.8344 2.26007 30.0391C2.26007 31.2434 2.28981 32.3437 2.36415 33.355C2.43849 34.3067 2.46823 35.4517 2.46823 36.7603C2.45336 38.0687 2.45336 39.199 2.45336 40.121C2.45336 41.2807 2.45336 42.4257 2.4831 43.556C2.51284 44.701 2.5277 45.816 2.5277 46.8866L12.2371 46.1583L10.0216 19.8381H16.3855C16.5936 19.8381 16.7423 20.2545 16.8464 21.0723C16.9505 21.9051 17.0248 22.4404 17.0843 22.6783C17.1735 23.1839 17.2627 23.6746 17.3519 24.1802C17.4412 24.6858 17.5304 25.1467 17.6196 25.5928C17.7832 26.604 17.9616 27.6003 18.1549 28.5668C18.3333 29.5334 18.5117 30.5 18.6753 31.4814C18.9727 33.4444 19.3146 35.4367 19.731 37.4443C19.8648 38.1283 20.073 39.1394 20.3406 40.463C20.6082 41.7863 20.742 42.738 20.7718 43.333C21.6342 43.1396 22.9872 42.8273 24.8459 42.411C26.7045 41.9946 27.8196 41.5037 28.2062 40.9684C28.5335 40.4927 28.7861 39.9424 28.9645 39.303C29.1431 38.6637 29.3214 38.0093 29.4851 37.355C29.708 36.4034 29.7674 35.7194 29.6484 35.2733C29.5294 34.842 29.3064 34.2473 28.9941 33.5037C28.4888 32.3737 28.0129 31.2137 27.5669 30.0241C27.1208 28.8344 26.6301 27.6895 26.1246 26.5743C25.857 26.0241 25.6042 25.4441 25.3663 24.8493C25.1284 24.2545 24.9053 23.6746 24.6972 23.0947C24.5039 22.6337 24.2511 22.0538 23.924 21.3697C23.5969 20.6857 23.3887 20.1058 23.2995 19.6597C23.6118 19.6151 23.7604 19.5853 23.7307 19.5853H24.3998L23.0467 15.273H21.9464L18.259 3.85278L13.8726 3.60001L15.5677 15.0946ZM33.1131 43.9276L28.8011 41.385C29.1131 40.79 29.4551 39.9573 29.8417 38.8717C30.2137 37.801 30.4067 36.805 30.4067 35.8977C30.5853 36.0317 31.2692 36.656 32.4735 37.7567C33.678 38.8717 34.2876 39.4667 34.2876 39.526V39.9573C34.2876 40.4777 34.1537 41.2213 33.886 42.2027C33.6184 43.184 33.3508 43.7493 33.1131 43.9276ZM1.44228 3.43645L1.51662 0.313721H2.36415L3.96998 0.38807L5.57581 0.47729L7.07758 0.566512L8.68341 0.640862L9.36738 0.730081L9.44174 0.982873L9.53093 1.16131L9.62015 1.23566L9.70938 1.32488L9.78371 1.39923L9.87293 1.57768L9.94726 1.6669L10.0365 1.74125L10.1257 1.83047L10.2149 1.99404L10.2893 2.08326L10.3785 2.17248L10.4677 2.24683L10.542 2.33605L10.6312 2.51449L10.7205 2.58884L10.7948 2.67806L10.884 2.75241L10.9732 2.93085L11.0624 3.02008L11.1368 3.09442L11.226 3.18365L11.3003 3.34722L11.3895 3.43645L11.4788 3.52565L11.568 3.60001L11.6423 3.77845L11.7315 3.86768L11.8207 3.94201L11.8951 4.03124L11.9843 4.19481L12.0735 4.28404L12.1479 4.37324L12.2371 4.44761L12.3263 4.62604L12.4006 4.70038L12.4898 4.78961L12.5791 4.87884L12.6534 5.04241L12.7426 5.13161L12.8318 5.20597L12.9062 5.2952L12.9954 5.45877L13.0846 5.54797L13.1738 5.6372L13.2482 5.71157L13.3374 5.89L13.4117 5.9792V5.80077L13.3374 5.20597L13.2482 4.70038L13.1738 4.10558L13.0846 3.52565L12.9954 2.93085V2.84162H14.0065L15.538 2.93085L17.0546 3.02008L18.5712 3.09442L18.824 3.18365L18.9132 3.34722L19.0024 3.52565L19.0768 3.60001L19.1659 3.77845L19.2403 3.86768L19.3295 4.03124L19.4187 4.10558L19.508 4.28404L19.5823 4.37324L19.6715 4.53681L19.7607 4.62604L19.8499 4.78961L19.9243 4.87884L20.0135 5.04241L20.0878 5.13161L20.177 5.2952L20.2663 5.38441L20.3555 5.54797L20.4298 5.6372L20.519 5.80077L20.5934 5.89L20.6826 6.05357L20.7718 6.1428L20.861 6.30636L20.9354 6.39557L21.0246 6.55916L21.1138 6.73759L21.1881 6.8268L21.2773 6.99039L21.3666 7.06473L21.4409 7.24316L21.5301 7.33239L21.6193 7.49596L21.6937 7.57032L21.7829 7.74875L21.8721 7.83798L21.9464 8.00155L22.0357 8.09075L22.1249 8.25435L22.1992 8.34355L22.2884 8.50712L22.3776 8.59635L22.4669 8.75991L22.5412 8.84914L22.6304 9.01271L22.7047 9.10194L22.794 9.26551L22.8832 9.35471L22.9724 9.51828L23.0467 9.60751L23.1359 9.77107L23.2252 9.86031L23.2995 10.0239L23.3887 10.1131L23.4779 10.2915L23.5523 10.4551L23.6415 10.5295L23.7307 10.7079L23.8199 10.7971L23.8943 10.9607L23.9835 11.0499L24.0578 11.2135L24.147 11.3027L24.2362 11.4663L24.3255 11.5555L24.3998 11.7191L24.489 11.8083L24.5782 11.9719L24.6526 12.0611L24.7418 12.2247L24.831 12.3139L24.9053 12.4923L24.9945 12.5667L25.0838 12.7302L25.173 12.8195L25.2473 12.9979L25.3365 13.0722L25.4109 13.2358L25.5001 13.325L25.5893 13.5035L25.6785 13.5778L25.7529 13.7562L25.8421 13.9198L25.9313 14.1726L26.0056 14.4254L26.0948 14.6782L26.1841 14.931L26.2584 15.1838L26.3476 15.4366L26.4368 15.6894L26.5112 15.957L26.6004 16.195L26.6896 16.4626L26.7639 16.7898L26.8532 17.0426L26.9424 17.3102L27.0167 17.5481L27.1059 17.8158L27.1951 18.0686L27.2844 18.3214L27.3587 18.5741L27.4479 18.8269L27.5223 19.0797L27.6115 19.3325L27.7007 19.5853L27.7899 19.8381L27.8642 20.0909L27.9535 20.4329L28.0279 20.6857L28.1169 20.8493L28.2062 21.0129L28.2955 21.1021L28.3698 21.2656L28.4589 21.3549L28.5482 21.4441L28.6375 21.6077L28.7118 21.682L28.8011 21.7712L28.8754 21.9497L28.9645 22.024L29.0538 22.2025L29.1431 22.2917L29.2174 22.366L29.3064 22.5296L29.3808 22.6188L29.4701 22.7081L29.5594 22.8716L29.6484 22.9608L29.7227 23.2136L29.812 23.4664L29.9014 23.8084L29.9904 24.0612L30.0647 24.314L30.154 24.5668L30.2284 24.8196L30.3177 25.0724L30.4067 25.3252L30.496 25.578L30.5703 25.92L30.6596 26.1728L30.734 26.4256L30.8233 26.6784L30.9123 26.9311V27.1096H30.734V27.2732L30.6596 27.4367L30.5703 27.526H30.2284L30.3177 27.6895L30.4067 27.9571L30.496 28.1208L30.5703 28.2844L30.6596 28.5371L30.734 28.7154L30.8233 28.9534L30.9123 29.1318L31.0016 29.3847L31.0759 29.5484L31.1652 29.7267L31.2543 29.9794L31.3286 30.1431L31.4179 30.3958L31.5072 30.5744L31.5815 30.8271L31.6706 30.9907L31.7599 31.1544L31.8342 31.422L31.9235 31.5854L32.0125 31.8384L32.0869 32.0017L32.1762 32.1804L32.2655 32.4331L32.3398 32.5967L32.4288 32.8494L32.5182 33.013L32.6075 33.2657L32.6818 33.4444L32.7711 33.6077L32.8454 33.8607L32.9345 34.039L33.0238 34.2917L33.1131 34.4554L33.1874 34.7081L33.2764 34.8867L33.3657 35.0501L33.4401 35.303L33.5294 35.4667L33.6184 35.7343L33.6927 35.8977L33.782 36.1507L33.8713 36.314L33.9604 36.4927L34.0347 36.7454L34.124 36.909L34.1983 37.1617L34.2876 37.3253L34.3767 37.5037L34.466 37.7567L34.5403 37.92L34.6296 38.173L34.7189 38.3513L34.7933 38.604L34.8823 38.7677L34.9716 38.9313L35.0459 39.199V40.3737L34.9716 40.9684L34.8823 41.385L34.7933 41.727L34.7189 42.069L34.6296 42.396L34.5403 42.6637L34.466 42.9163L34.3767 43.1693L34.2876 43.333L34.1983 43.5856L34.124 43.7493L34.0347 43.9276L33.9604 44.0913L33.8713 44.2696L33.782 44.344L33.6927 44.5223L33.6184 44.5967L33.5294 44.686L33.4401 44.7753L33.2764 44.8643L33.1874 44.9387L33.0238 45.028L32.8454 45.1023L32.6075 45.1916L32.4288 45.2807L32.1762 45.37L31.9235 45.4443L31.6706 45.5336L31.3286 45.6229L31.0759 45.6973L30.734 45.7863L30.4067 45.8756L30.154 45.95L29.7227 46.0393L29.3808 46.1283L29.0538 46.2026L28.7118 46.292L28.2955 46.3813L27.8642 46.4703L27.5223 46.5446H26.7639L26.5112 46.4703L26.2584 46.3813L26.0948 46.292L25.8421 46.2026L25.5893 46.1283L25.4109 46.0393L25.173 45.95L24.9053 45.8756L24.7418 45.7863L24.489 45.6973L24.3255 45.6229L24.0578 45.5336L23.8199 45.4443L23.6415 45.37L23.3887 45.2807L23.1359 45.1916L22.9724 45.1023L22.7047 45.028L22.4669 44.9387L22.2884 44.8643L22.0357 44.7753L21.8721 44.686L21.6193 44.5967L21.3666 44.5223L21.1881 44.4333L20.9354 44.344L20.7718 44.2547L20.861 45.1023L20.9354 46.0393L21.0246 47.0503L21.1138 48.0616V48.4036L21.0246 48.4926L20.9354 48.5819L20.861 48.6563L20.7718 48.7456L20.6826 48.8346L19.5823 48.909L18.4969 48.9983L17.3817 49.0876L16.2963 49.1766L15.196 49.251L14.0065 49.3403L12.9062 49.4146H12.0735L11.568 49.3403L11.0624 49.251L10.6312 49.1766L10.1257 49.0876L9.62015 48.9983L9.1146 48.909L8.59421 48.8346L8.17788 48.7456L7.67233 48.6563L7.1668 48.5819L6.66125 48.4926L6.24492 48.4036L5.75426 48.3293L5.23384 48.2399L4.72829 48.1506L4.22276 48.0616L3.79157 47.9873L3.28601 47.8979L2.78049 47.8236L2.27494 47.7343L1.76939 47.6453L1.69505 42.5743L1.60584 36.314L1.51662 29.9794L1.44228 23.7192L1.35307 21.6077L1.26385 21.5184L1.1003 21.4441L1.01108 21.3549L0.847525 21.2656L0.75831 21.1764L0.594754 21.1021L0.505542 21.0129L0.341983 20.9385L0 20.8493V13.1615L0.594754 13.0722H1.35307V12.6559L1.44228 3.43645ZM34.2876 39.526V39.9573C34.2876 40.4777 34.1537 41.2213 33.886 42.2027C33.6184 43.184 33.3508 43.7493 33.1131 43.9276L28.8011 41.385C29.1131 40.79 29.4551 39.9573 29.8417 38.8717C30.2137 37.801 30.4067 36.805 30.4067 35.8977C30.5853 36.0317 31.2692 36.656 32.4735 37.7567C33.678 38.8717 34.2876 39.4667 34.2876 39.526ZM32.5182 44.4333L28.2955 41.8903C27.5371 42.3067 26.4963 42.6786 25.173 43.0057C24.9499 43.08 24.3552 43.2287 23.4036 43.4517C22.452 43.675 21.9316 43.8383 21.8721 43.9276C22.4074 43.987 23.2252 44.2846 24.3552 44.8199C25.4852 45.3553 26.3625 45.6973 26.987 45.831C27.3141 45.9203 28.2212 45.727 29.6931 45.266C31.1503 44.8199 32.1018 44.5373 32.5182 44.4333Z" fill="black"/>
<path d="M15.5677 15.0947L9.53092 14.7973L8.6388 1.39938L2.20058 1.05737V2.3362L2.0965 13.7564L1.1895 13.8605L0.758301 13.8308V20.0911H1.94781C2.17084 20.0911 2.26006 20.5669 2.24519 21.4888C2.21545 22.4256 2.20058 23.0353 2.20058 23.303C2.20058 23.8539 2.18645 24.4048 2.17196 24.9695L2.17084 25.0131C2.15597 25.593 2.15597 26.1432 2.18571 26.6785C2.23032 27.7194 2.26006 28.8346 2.26006 30.0392C2.26006 31.2436 2.2898 32.3439 2.36414 33.3552C2.43848 34.3069 2.46822 35.4518 2.46822 36.7605C2.45335 38.0689 2.45335 39.1991 2.45335 40.1211C2.45335 41.2808 2.45335 42.4258 2.48309 43.5561C2.51283 44.7011 2.5277 45.8161 2.5277 46.8868L12.2371 46.1584L10.0216 19.8383H16.3855C16.5936 19.8383 16.7423 20.2546 16.8464 21.0725C16.9505 21.9052 17.0248 22.4405 17.0843 22.6784C17.1735 23.184 17.2627 23.6747 17.3519 24.1803C17.4412 24.6859 17.5304 25.1469 17.6196 25.593C17.7832 26.6041 17.9616 27.6004 18.1549 28.5669C18.3333 29.5336 18.5117 30.5002 18.6753 31.4815C18.9727 33.4445 19.3146 35.4369 19.731 37.4445C19.8648 38.1285 20.073 39.1395 20.3406 40.4631C20.6082 41.7865 20.742 42.7381 20.7718 43.3331C21.6342 43.1398 22.9872 42.8275 24.8458 42.4111C26.7044 41.9948 27.8196 41.5038 28.2062 40.9685C28.5335 40.4928 28.7861 39.9425 28.9645 39.3032C29.1431 38.6638 29.3214 38.0095 29.485 37.3552C29.708 36.4035 29.7674 35.7195 29.6484 35.2735C29.5294 34.8422 29.3064 34.2475 28.9941 33.5039C28.4888 32.3738 28.0129 31.2139 27.5669 30.0242C27.1208 28.8346 26.6301 27.6897 26.1246 26.5744C25.8569 26.0242 25.6042 25.4443 25.3663 24.8495C25.1284 24.2547 24.9053 23.6747 24.6972 23.0948C24.5039 22.6338 24.2511 22.0539 23.924 21.3699C23.5969 20.6859 23.3887 20.1059 23.2995 19.6598C23.6117 19.6152 23.7604 19.5855 23.7307 19.5855H24.3998L23.0467 15.2732H21.9464L18.259 3.85293L13.8726 3.60016L15.5677 15.0947Z" fill="#D3AEFF"/>
<path d="M178.561 0.832031V20.8928H149.153C148.267 20.8928 147.65 21.4613 147.299 22.113C146.951 22.757 146.793 23.5802 146.793 24.4268C146.793 25.2735 146.951 26.0968 147.299 26.7409C147.65 27.3926 148.267 27.9613 149.153 27.9613H165.26C169.002 27.9613 172.433 30.3788 174.972 34.5846C177.398 38.6038 178.936 44.1576 179.061 50.3996H179.007V51.2317C179.007 57.8653 177.426 63.8191 174.882 68.0857C172.331 72.3652 168.897 74.8269 165.196 74.8269H135.533V54.766H164.878C165.752 54.766 166.384 54.2104 166.754 53.5638C167.122 52.92 167.301 52.0921 167.301 51.2317C167.301 50.417 167.119 49.596 166.759 48.9489C166.405 48.3148 165.781 47.6977 164.878 47.6977H135.788V0.832031H178.561Z" fill="black"/>
<path d="M6.38552 54.178H14.7147C18.0649 54.178 20.5455 56.9259 20.5455 60.8263V68.6784C20.5455 72.5056 18.0757 75.1839 14.7147 75.1842H6.38552C3.02296 75.1842 0.554696 72.5345 0.554688 68.6784V60.8263L0.556585 60.6457C0.632567 56.8688 3.089 54.178 6.38552 54.178ZM71.3735 54.4517H84.3396V59.6932H71.4289C71.0514 59.6932 70.7294 59.8552 70.5203 60.1401C70.3342 60.3933 70.2688 60.6993 70.2643 60.9786L70.2635 61.0088C70.2679 61.2881 70.3342 61.5941 70.5203 61.8473C70.7294 62.1319 71.0514 62.2942 71.4289 62.2942H78.4531C81.6609 62.2942 84.2283 64.8338 84.2283 68.2826C84.2283 71.7559 81.9724 74.8497 78.3696 74.8497H65.5147V69.872H78.2867C79.0425 69.872 79.4796 69.1921 79.4796 68.5567C79.4796 67.9517 79.0671 67.2106 78.2867 67.2106H71.2622C68.0281 67.2106 65.5147 64.7026 65.5147 61.2524C65.5147 57.753 67.7643 54.4517 71.3735 54.4517ZM37.0689 54.4517C40.4276 54.452 42.7609 57.2385 42.7609 61.1001V68.4044C42.7609 70.3319 42.171 71.9442 41.1814 73.0667C40.1974 74.1832 38.7893 74.8494 37.0689 74.8497H23.8252V54.4517H37.0689ZM127.581 54.4517V74.8497H122.999V67.5149H113.81V74.8497H109.312V54.4517H127.581ZM92.0396 54.4517V62.629H101.145V54.4517H105.699V74.8497H101.145V67.7886H92.0396V74.8497H87.5127V54.4517H92.0396ZM62.8014 54.4517V59.45H56.4157V70.0548H62.8291V74.8497H45.4759V70.0548H51.8613V59.45H45.4759V54.4517H62.8014ZM6.66315 59.5412C6.25861 59.5412 5.89167 59.7052 5.63149 59.997C5.37497 60.2846 5.24797 60.6657 5.24797 61.0698V68.4349C5.24797 68.8388 5.37492 69.2204 5.63149 69.5081C5.89167 69.7996 6.25861 69.9632 6.66315 69.9632H14.4092C14.819 69.9632 15.1932 69.806 15.4609 69.5125C15.7249 69.2232 15.8522 68.839 15.8522 68.4349V61.0698C15.8522 60.6657 15.7249 60.2816 15.4609 59.9923C15.1931 59.6988 14.819 59.5412 14.4092 59.5412H6.66315ZM36.2088 59.7848H28.3795V69.7505H36.7635C37.6549 69.7505 38.2066 69.0149 38.2066 68.2219V61.2829C38.2066 60.8787 38.0793 60.4946 37.8152 60.2053C37.5473 59.9118 37.1732 59.7543 36.7635 59.7543H36.2088V59.7848ZM113.81 62.7812H122.999V59.8455H113.81V62.7812Z" fill="black"/>
</g>
<defs>
<clipPath id="clip0_4179_2789">
<rect width="180" height="76" fill="white"/>
</clipPath>
</defs>
</svg>
